<mxfile host="app.diagrams.net" modified="2023-09-08T01:38:12.219Z" agent="Mozilla/5.0 (Macintosh; Intel Mac OS X 10_15_7) AppleWebKit/537.36 (KHTML, like Gecko) Chrome/116.0.0.0 Safari/537.36" version="21.7.2" etag="TK_VerkE2PqWOPaTqCdN" type="github">
  <diagram name="第 1 页" id="_g9TubGNkd7v_9ropyOg">
    <mxGraphModel>
      <root>
        <mxCell id="0" />
        <mxCell id="1" parent="0" />
      </root>
    </mxGraphModel>
  </diagram>
</mxfile>
